Coordinates
version=1
nRows=26
nColumns=27
inDegrees=yes

Units are S.I. units (second, meters, Newtons, ...)
If the header above contains a line with 'inDegrees', this indicates whether rotational values are in degrees (yes) or radians (no).

endheader
time	pelvis_rotation	pelvis_tilt	pelvis_list	pelvis_tx	pelvis_ty	pelvis_tz	hip_flexion_r	hip_adduction_r	hip_rotation_r	knee_angle_r	knee_rotation_r	knee_adduction_r	knee_angle_r_beta	ankle_angle_r	subtalar_angle_r	mtp_angle_r	hip_flexion_l	hip_adduction_l	hip_rotation_l	knee_angle_l	knee_rotation_l	knee_adduction_l	knee_angle_l_beta	ankle_angle_l	subtalar_angle_l	mtp_angle_l
      5.39500000	      5.06379890	    -32.73330517	      4.43603179	     -0.04193195	      0.46796945	     -1.16024524	    129.04321274	    -42.32079801	     26.48366886	    106.47228758	      0.00000000	      9.92833468	      1.85829198	     15.15068655	      0.00000000	      0.00000000	    123.00098744	    -31.54949283	     17.89258133	    100.66090827	      0.00000000	     -9.94824929	      1.75686428	     10.21519303	      0.00000000	      0.00000000
      5.40000000	      5.05637365	    -32.82673723	      4.50610425	     -0.04284048	      0.46959596	     -1.16026573	    128.98674489	    -42.23221849	     26.34179767	    106.26029614	      0.00000000	      9.92749267	      1.85459203	     14.98288869	      0.00000000	      0.00000000	    122.83100052	    -31.54079167	     17.65858221	    100.41835110	      0.00000000	     -9.94774353	      1.75263086	     10.11215377	      0.00000000	      0.00000000
      5.40500000	      5.06376080	    -33.02064562	      4.64194793	     -0.04382145	      0.47143579	     -1.16028002	    129.02868854	    -42.09330316	     26.24763432	    106.01903268	      0.00000000	      9.92662356	      1.85038119	     14.84687556	      0.00000000	      0.00000000	    122.68182156	    -31.53037919	     17.35507195	    100.12757846	      0.00000000	     -9.94720557	      1.74755592	      9.97496092	      0.00000000	      0.00000000
      5.41000000	      5.05606100	    -33.16832137	      4.63340674	     -0.04480407	      0.47324726	     -1.16033966	    128.92017178	    -42.05994833	     25.98639967	    105.76028456	      0.00000000	      9.92576220	      1.84586518	     14.66115830	      0.00000000	      0.00000000	    122.58041926	    -31.44679155	     17.19829580	     99.87027186	      0.00000000	     -9.94661930	      1.74306507	      9.94093391	      0.00000000	      0.00000000
      5.41500000	      5.09686472	    -33.31102203	      4.66843288	     -0.04575709	      0.47508359	     -1.16036949	    128.84439647	    -42.05729519	     25.77749176	    105.51098126	      0.00000000	      9.92481161	      1.84151402	     14.51817283	      0.00000000	      0.00000000	    122.45399930	    -31.33939587	     16.99776525	     99.59482080	      0.00000000	     -9.94603556	      1.73825754	      9.82832314	      0.00000000	      0.00000000
      5.42000000	      5.11849842	    -33.43333331	      4.71603229	     -0.04672380	      0.47699491	     -1.16040460	    128.74115744	    -42.02072450	     25.57153155	    105.25360862	      0.00000000	      9.92384965	      1.83702202	     14.39657018	      0.00000000	      0.00000000	    122.28245843	    -31.26267519	     16.77074332	     99.31024912	      0.00000000	     -9.94543549	      1.73329083	      9.73555042	      0.00000000	      0.00000000
      5.42500000	      5.12293427	    -33.57288964	      4.73610739	     -0.04774037	      0.47893188	     -1.16042524	    128.62379619	    -41.97922461	     25.32468469	    104.98066811	      0.00000000	      9.92280050	      1.83225831	     14.23819505	      0.00000000	      0.00000000	    122.14283298	    -31.18028681	     16.58124403	     99.01797946	      0.00000000	     -9.94479766	      1.72818976	      9.63315593	      0.00000000	      0.00000000
      5.43000000	      5.15307050	    -33.71655158	      4.78208757	     -0.04877820	      0.48092247	     -1.16044509	    128.52778177	    -41.94891410	     25.10505966	    104.70398118	      0.00000000	      9.92177882	      1.82742921	     14.07492476	      0.00000000	      0.00000000	    121.98708200	    -31.08478881	     16.35636664	     98.71205650	      0.00000000	     -9.94417145	      1.72285040	      9.51278473	      0.00000000	      0.00000000
      5.43500000	      5.19030639	    -33.84283892	      4.83618738	     -0.04977218	      0.48293211	     -1.16046537	    128.43243795	    -41.93221266	     24.89564293	    104.43389450	      0.00000000	      9.92069827	      1.82271531	     13.91135211	      0.00000000	      0.00000000	    121.79708732	    -30.98897777	     16.11523557	     98.40836357	      0.00000000	     -9.94341603	      1.71754996	      9.45281791	      0.00000000	      0.00000000
      5.44000000	      5.40070080	    -33.95304510	      4.64222450	     -0.05080025	      0.48499588	     -1.16056057	    128.10669050	    -42.32903649	     24.38431816	    104.11231865	      0.00000000	      9.91976688	      1.81710275	     13.82330065	      0.00000000	      0.00000000	    121.78112382	    -30.49984145	     16.18746838	     98.10518312	      0.00000000	     -9.94258336	      1.71225846	      9.25515678	      0.00000000	      0.00000000
      5.44500000	      5.23612154	    -34.10047349	      4.73588739	     -0.05192780	      0.48709194	     -1.16048925	    127.99442164	    -41.99199861	     24.19505388	    103.82629110	      0.00000000	      9.91846839	      1.81211063	     13.64786205	      0.00000000	      0.00000000	    121.55891194	    -30.68687870	     15.87508995	     97.77690091	      0.00000000	     -9.94196321	      1.70652885	      9.21866288	      0.00000000	      0.00000000
      5.45000000	      5.24889904	    -34.30948603	      4.92044077	     -0.05309157	      0.48921930	     -1.16043870	    128.06240605	    -41.81175778	     24.11795565	    103.54049163	      0.00000000	      9.91719708	      1.80712249	     13.46871145	      0.00000000	      0.00000000	    121.36856387	    -30.69910785	     15.49279555	     97.41697698	      0.00000000	     -9.94125241	      1.70024700	      9.01129819	      0.00000000	      0.00000000
      5.45500000	      5.26297928	    -34.43794969	      4.90452514	     -0.05415307	      0.49142528	     -1.16042577	    127.85038431	    -41.81225504	     23.79467305	    103.21881865	      0.00000000	      9.91591345	      1.80150824	     13.30563254	      0.00000000	      0.00000000	    121.19539443	    -30.58913724	     15.31525931	     97.07739210	      0.00000000	     -9.94043420	      1.69432012	      8.96615842	      0.00000000	      0.00000000
      5.46000000	      5.28547883	    -34.59403725	      4.95012875	     -0.05526071	      0.49362688	     -1.16040233	    127.71911401	    -41.76677332	     23.53894887	    102.90442667	      0.00000000	      9.91462088	      1.79602106	     13.16768258	      0.00000000	      0.00000000	    121.01835845	    -30.50820639	     15.07425247	     96.72714439	      0.00000000	     -9.93962670	      1.68820715	      8.87026581	      0.00000000	      0.00000000
      5.46500000	      5.31488098	    -34.68304514	      4.95704724	     -0.05637741	      0.49584698	     -1.16037891	    127.49036215	    -41.76454853	     23.24075819	    102.58389822	      0.00000000	      9.91330256	      1.79042678	     13.01685384	      0.00000000	      0.00000000	    120.80186154	    -30.39485388	     14.86718867	     96.37028319	      0.00000000	     -9.93883447	      1.68197874	      8.73364823	      0.00000000	      0.00000000
      5.47000000	      5.36334864	    -34.82072877	      5.00568467	     -0.05751327	      0.49810541	     -1.16032848	    127.33230309	    -41.74078925	     22.98181281	    102.25582452	      0.00000000	      9.91203018	      1.78470082	     12.87651534	      0.00000000	      0.00000000	    120.60385914	    -30.28828098	     14.62164993	     95.99510483	      0.00000000	     -9.93802803	      1.67543065	      8.59289469	      0.00000000	      0.00000000
      5.47500000	      5.57764235	    -34.88607032	      4.81074861	     -0.05855319	      0.50033980	     -1.16038370	    126.92598533	    -42.14764878	     22.42803181	    101.90398589	      0.00000000	      9.91099549	      1.77856007	     12.73917977	      0.00000000	      0.00000000	    120.52358998	    -29.82680918	     14.67410767	     95.65798475	      0.00000000	     -9.93700908	      1.66954679	      8.46065044	      0.00000000	      0.00000000
      5.48000000	      5.42126428	    -35.05284380	      5.04646270	     -0.05977491	      0.50265259	     -1.16024699	    126.91509685	    -41.70626059	     22.38990615	    101.58166094	      0.00000000	      9.90936103	      1.77293444	     12.59036862	      0.00000000	      0.00000000	    120.19323033	    -30.09224822	     14.17606019	     95.25194534	      0.00000000	     -9.93627612	      1.66246007	      8.34850720	      0.00000000	      0.00000000
      5.48500000	      5.41565432	    -35.16431689	      5.16490459	     -0.06083097	      0.50493806	     -1.16015234	    126.76154241	    -41.57368340	     22.20403871	    101.26353074	      0.00000000	      9.90795274	      1.76738202	     12.55492357	      0.00000000	      0.00000000	    119.90021447	    -30.11963414	     13.82154456	     94.87655016	      0.00000000	     -9.93532766	      1.65590818	      8.35753975	      0.00000000	      0.00000000
      5.49000000	      5.51288130	    -35.28061801	      5.13011295	     -0.06205630	      0.50721879	     -1.16012211	    126.52208013	    -41.67620032	     21.84069388	    100.90181571	      0.00000000	      9.90669201	      1.76106891	     12.32295546	      0.00000000	      0.00000000	    119.75266815	    -29.88819437	     13.68834802	     94.48238902	      0.00000000	     -9.93452073	      1.64902877	      8.07335196	      0.00000000	      0.00000000
      5.49500000	      5.53631612	    -35.35507538	      5.16143210	     -0.06316434	      0.50949728	     -1.16004977	    126.27444631	    -41.64159920	     21.55764150	    100.56187190	      0.00000000	      9.90539124	      1.75513577	     12.18237325	      0.00000000	      0.00000000	    119.50114217	    -29.82057574	     13.44192246	     94.09879205	      0.00000000	     -9.93368027	      1.64233374	      7.93036217	      0.00000000	      0.00000000
      5.50000000	      5.59402808	    -35.47753196	      5.20323809	     -0.06429917	      0.51175272	     -1.15997699	    126.08917979	    -41.63932844	     21.28618114	    100.22098375	      0.00000000	      9.90412461	      1.74918615	     12.06225900	      0.00000000	      0.00000000	    119.29244261	    -29.70562099	     13.20595171	     93.70680840	      0.00000000	     -9.93276203	      1.63549234	      7.80354274	      0.00000000	      0.00000000
      5.50500000	      5.63360996	    -35.58178017	      5.23863233	     -0.06542271	      0.51403805	     -1.15989194	    125.86761894	    -41.62103222	     20.99763054	     99.86886223	      0.00000000	      9.90283830	      1.74304047	     11.92401636	      0.00000000	      0.00000000	    119.07146222	    -29.61533672	     12.97100597	     93.31585815	      0.00000000	     -9.93186000	      1.62866897	      7.66392019	      0.00000000	      0.00000000
      5.51000000	      5.68276550	    -35.65872512	      5.27667525	     -0.06650882	      0.51626769	     -1.15981131	    125.63406483	    -41.61911542	     20.72165810	     99.52740730	      0.00000000	      9.90139567	      1.73708095	     11.79356351	      0.00000000	      0.00000000	    118.82150999	    -29.51697150	     12.73271826	     92.92467091	      0.00000000	     -9.93092103	      1.62184146	      7.51664316	      0.00000000	      0.00000000
      5.51500000	      5.71858161	    -35.76499611	      5.30190891	     -0.06759976	      0.51851111	     -1.15971287	    125.40430110	    -41.59939253	     20.42581834	     99.17873018	      0.00000000	      9.90016888	      1.73099539	     11.68543732	      0.00000000	      0.00000000	    118.60981164	    -29.42771425	     12.51371861	     92.53418714	      0.00000000	     -9.93002654	      1.61502624	      7.37694406	      0.00000000	      0.00000000
      5.52000000	      5.74852397	    -35.84416869	      5.33710272	     -0.06866410	      0.52072997	     -1.15961070	    125.16314868	    -41.56949176	     20.14973260	     98.83520360	      0.00000000	      9.89888714	      1.72499972	     11.55969746	      0.00000000	      0.00000000	    118.36184747	    -29.35078176	     12.28039784	     92.14262363	      0.00000000	     -9.92910199	      1.60819216	      7.24155726	      0.00000000	      0.00000000
